HIERARCHY
ROOT Hips
{
	OFFSET	0.00	0.00	0.00
	CHANNELS 6 Xposition Yposition Zposition Zrotation Xrotation Yrotation
	JOINT LeftUpLeg
	{
		OFFSET	 0.126116	-0.065224	 0.014019
		CHANNELS 3 Zrotation Xrotation Yrotation
		JOINT LeftLeg
		{
			OFFSET	 0.000000	 0.569914	 0.000000
			CHANNELS 3 Zrotation Xrotation Yrotation
			JOINT LeftFoot
			{
				OFFSET	 0.000000	 0.544423	 0.000000
				CHANNELS 3 Zrotation Xrotation Yrotation
				JOINT LeftToeBase
				{
					OFFSET	 0.000000	 0.207117	 0.000000
					CHANNELS 3 Zrotation Xrotation Yrotation
					End Site
					{
						OFFSET	 0.000000	 0.207117	 0.000000
					}
				}
			}
		}
	}
	JOINT RightUpLeg
	{
		OFFSET	-0.124023	-0.065224	 0.008373
		CHANNELS 3 Zrotation Xrotation Yrotation
		JOINT RightLeg
		{
			OFFSET	 0.000000	 0.570047	 0.000000
			CHANNELS 3 Zrotation Xrotation Yrotation
			JOINT RightFoot
			{
				OFFSET	 0.000000	 0.544354	 0.000000
				CHANNELS 3 Zrotation Xrotation Yrotation
				JOINT RightToeBase
				{
					OFFSET	 0.000000	 0.207540	 0.000000
					CHANNELS 3 Zrotation Xrotation Yrotation
					End Site
					{
						OFFSET	 0.000000	 0.207540	 0.000000
					}
				}
			}
		}
	}
	JOINT Spine
	{
		OFFSET	 0.000184	 0.117403	 0.007763
		CHANNELS 3 Zrotation Xrotation Yrotation
		JOINT Spine1
		{
			OFFSET	 0.000000	 0.137269	 0.000000
			CHANNELS 3 Zrotation Xrotation Yrotation
			JOINT Spine2
			{
				OFFSET	 0.000000	 0.156879	 0.000000
				CHANNELS 3 Zrotation Xrotation Yrotation
				JOINT LeftShoulder
				{
					OFFSET	 0.080501	 0.160143	 0.002496
					CHANNELS 3 Zrotation Xrotation Yrotation
					JOINT LeftArm
					{
						OFFSET	 0.000000	 0.164363	 0.000000
						CHANNELS 3 Zrotation Xrotation Yrotation
						JOINT LeftForeArm
						{
							OFFSET	 0.000000	 0.364576	 0.000000
							CHANNELS 3 Zrotation Xrotation Yrotation
							JOINT LeftHand
							{
								OFFSET	 0.000000	 0.360812	 0.000000
								CHANNELS 3 Zrotation Xrotation Yrotation
								JOINT LeftHandIndex1
								{
									OFFSET	 0.000000	 0.086006	 0.000000
									CHANNELS 3 Zrotation Xrotation Yrotation
									JOINT LeftHandIndex2
									{
										OFFSET	 0.000000	 0.047237	 0.000000
										CHANNELS 3 Zrotation Xrotation Yrotation
										JOINT LeftHandIndex3
										{
											OFFSET	-0.004284	 0.038165	 0.000551
											CHANNELS 3 Zrotation Xrotation Yrotation
											End Site
											{
												OFFSET	-0.004284	 0.038165	 0.000551
											}
										}
									}
								}
							}
						}
					}
				}
				JOINT Neck
				{
					OFFSET	 0.000000	 0.176489	 0.000000
					CHANNELS 3 Zrotation Xrotation Yrotation
					JOINT Head
					{
						OFFSET	 0.000000	 0.077941	 0.001747
						CHANNELS 3 Zrotation Xrotation Yrotation
						End Site
						{
							OFFSET	 0.000000	 0.077941	 0.001747
						}
					}
				}
				JOINT RightShoulder
				{
					OFFSET	-0.080363	 0.159706	-0.000306
					CHANNELS 3 Zrotation Xrotation Yrotation
					JOINT RightArm
					{
						OFFSET	 0.000000	 0.164196	 0.000000
						CHANNELS 3 Zrotation Xrotation Yrotation
						JOINT RightForeArm
						{
							OFFSET	 0.000000	 0.365611	 0.000000
							CHANNELS 3 Zrotation Xrotation Yrotation
							JOINT RightHand
							{
								OFFSET	 0.000000	 0.360648	 0.000000
								CHANNELS 3 Zrotation Xrotation Yrotation
								JOINT RightHandIndex1
								{
									OFFSET	 0.000000	 0.069977	 0.000000
									CHANNELS 3 Zrotation Xrotation Yrotation
									JOINT RightHandIndex2
									{
										OFFSET	 0.000000	 0.052305	 0.000000
										CHANNELS 3 Zrotation Xrotation Yrotation
										JOINT RightHandIndex3
										{
											OFFSET	 0.009002	 0.042196	 0.000782
											CHANNELS 3 Zrotation Xrotation Yrotation
											End Site
											{
												OFFSET	 0.009002	 0.042196	 0.000782
											}
										}
									}
								}
							}
						}
					}
				}
			}
		}
	}
}
MOTION
Frames:    5
Frame Time: 0.03333334
-0.001117	 1.269675	-0.008925	 0.146641	 3.208416	 178.729500	-178.026500	 3.285100	-15.446930	 3.124491	-15.433970	 2.855870	-5.393267	 69.581790	 6.857218	 1.331492	 28.938720	-2.729976	 177.981000	 4.086480	 18.850460	-5.016869	-16.092870	-6.486394	 2.443400	 70.268190	-1.610447	-1.305381	 28.580770	 2.599266	-0.677927	 2.954856	-12.524420	-2.043167	 4.522397	-6.297606	-1.569807	-4.662289	 14.441040	-113.447200	 5.114961	 92.997610	 7.342957	 51.791260	 37.410160	 12.754810	-0.619868	-1.084759	-32.452690	-22.279930	-58.954360	-6.580301	 5.266122	 0.000000	 0.000000	 0.000000	 0.000000	 0.000000	 0.000000	 0.000000	 3.848918	-0.687673	-0.256037	 3.312714	 0.583188	 5.239448	 114.202400	-4.405502	-88.499040	-63.645310	-3.206694	 39.518460	-92.922940	-2.223760	-1.235385	-15.469340	-42.556700	 5.470028	-0.359778	 10.582320	 0.744568	 11.977790	 9.317195	-2.096042	-8.359140	 3.150276	 0.104230
-0.000666	 1.270019	-0.009388	 0.224529	 3.213329	 178.613400	-177.890400	 3.288939	-15.713030	 3.140409	-15.508790	 2.808525	-5.528003	 69.549000	 6.965024	 1.331492	 28.938720	-2.729976	 178.072600	 4.027263	 18.956460	-4.986622	-16.001090	-6.563879	 2.251508	 70.214420	-1.400090	-1.305416	 28.580970	 2.590344	-0.546098	 2.706538	-14.773970	-2.066800	 5.302640	-6.211937	-1.484700	-5.762406	 14.259190	-113.447500	 5.096050	 92.993460	 5.909595	 51.603950	 38.745560	 14.983440	-0.678786	-2.702348	-35.509680	-24.735780	-60.781130	-6.580301	 5.266122	 0.000000	 0.000000	 0.000000	 0.000000	 0.000000	 0.000000	 0.000000	 3.879691	-0.758302	-0.265587	 3.433357	 0.510498	 5.131374	 114.196900	-4.368006	-88.526170	-63.019590	-3.759524	 36.260940	-97.385690	-2.167570	 0.234877	-22.159160	-46.716350	 0.120098	-0.359772	 10.582140	 0.744568	 11.977790	 9.317008	-2.096004	-8.359138	 3.150177	 0.104239
-0.000015	 1.270367	-0.010014	 0.306204	 3.219393	 178.483600	-177.737800	 3.281723	-16.007460	 3.154284	-15.573950	 2.754977	-5.725780	 69.508210	 7.131962	 1.331492	 28.938720	-2.729976	 178.183700	 3.957466	 19.041750	-4.954037	-15.902070	-6.652133	 1.988079	 70.170760	-1.117881	-1.305454	 28.581190	 2.580353	-0.430946	 2.454868	-17.228780	-2.114187	 6.057390	-6.092415	-1.392542	-6.850384	 13.978110	-113.447900	 5.074890	 92.988840	 4.530471	 51.450580	 40.058660	 17.392400	-0.739305	-4.505163	-38.993450	-27.379410	-62.799170	-6.580301	 5.266122	 0.000000	 0.000000	 0.000000	 0.000000	 0.000000	 0.000000	 0.000000	 3.914141	-0.837410	-0.276238	 3.566836	 0.448604	 4.989072	 114.190900	-4.325997	-88.556550	-63.264070	-4.862710	 32.186290	-102.883300	-2.084532	 1.859222	-30.113390	-50.538520	-8.198665	-0.359765	 10.581920	 0.744568	 11.977790	 9.316799	-2.095962	-8.359133	 3.150067	 0.104250
 0.000907	 1.270763	-0.010904	 0.400875	 3.227478	 178.323700	-177.553300	 3.259183	-16.352830	 3.167147	-15.634230	 2.688452	-5.974915	 69.454800	 7.338611	 1.331492	 28.938720	-2.729976	 178.324400	 3.866884	 19.128840	-4.914965	-15.783230	-6.763106	 1.651118	 70.132390	-0.761475	-1.305502	 28.581460	 2.568005	-0.329716	 2.170142	-20.151790	-2.186580	 6.879165	-5.907357	-1.286580	-8.058426	 13.536110	-113.448300	 5.048712	 92.983090	 3.084502	 51.337750	 41.475690	 20.209120	-0.804668	-6.715775	-43.271310	-30.527270	-65.278030	-6.580301	 5.266122	 0.000000	 0.000000	 0.000000	 0.000000	 0.000000	 0.000000	 0.000000	 3.956695	-0.935178	-0.289335	 3.730121	 0.390915	 4.787952	 114.183400	-4.274070	-88.594080	-65.012900	-6.879515	 26.836940	-109.329400	-1.959049	 3.872338	-41.000530	-53.078040	-20.935380	-0.359756	 10.581660	 0.744568	 11.977790	 9.316542	-2.095910	-8.359127	 3.149930	 0.104263
 0.001916	 1.271164	-0.011955	 0.497421	 3.237422	 178.151000	-177.362000	 3.220275	-16.711910	 3.177399	-15.682310	 2.616193	-6.243607	 69.396800	 7.561302	 1.331492	 28.938720	-2.729976	 178.472600	 3.763850	 19.207310	-4.873146	-15.655840	-6.885593	 1.282674	 70.101140	-0.369018	-1.305554	 28.581760	 2.554619	-0.265118	 1.888444	-23.147760	-2.255371	 7.687110	-5.649579	-1.191622	-9.254870	 12.948410	-113.448800	 5.020380	 92.976900	 1.776838	 51.296130	 42.804320	 23.024060	-0.862411	-9.084153	-47.699450	-33.823430	-67.910800	-6.580301	 5.266122	 0.000000	 0.000000	 0.000000	 0.000000	 0.000000	 0.000000	 0.000000	 4.002804	-1.041179	-0.303451	 3.905584	 0.344996	 4.541762	 114.175300	-4.217802	-88.634740	-68.137310	-9.375362	 21.079180	-115.077200	-1.814628	 6.083511	-52.830660	-52.626160	-34.645630	-0.359747	 10.581380	 0.744568	 11.977790	 9.316260	-2.095853	-8.359123	 3.149782	 0.104277
